<?xml version="1.0" encoding="UTF-8"?>
<svg id="Layer_1" xmlns="http://www.w3.org/2000/svg" version="1.1" viewBox="0 0 500 220">
  <!-- Generator: Adobe Illustrator 29.6.1, SVG Export Plug-In . SVG Version: 2.1.1 Build 9)  -->
  <defs>
    <style>
      .st0 {
        stroke: #00b5cc;
        stroke-linecap: round;
        stroke-linejoin: round;
        stroke-width: 3px;
      }

      .st0, .st1 {
        fill: #00b5cc;
      }
    </style>
  </defs>
  <path class="st0" d="M402.02,176.89c-5.16,3.87-10.75,7.53-16.74,10.96-25.63,14.7-58.54,25.26-95.32,29.74,52.8-3.74,100.02-14.75,136.2-30.62,7.25-3.18,14.05-6.55,20.35-10.1l-44.49.02ZM114.71,187.85c-5.92-3.39-11.45-7.01-16.56-10.84l-44.37.02c6.22,3.49,12.92,6.8,20.06,9.94,36.18,15.88,83.4,26.89,136.2,30.62-36.79-4.49-69.69-15.04-95.32-29.74ZM52.39,176.2l44.65-.02c-9.79-7.46-17.97-15.68-24.24-24.46h1.24c6.37,8.79,14.7,17,24.68,24.46l76.73-.03c-4.76-7.46-8.74-15.66-11.79-24.42h1.12c3.08,8.78,7.11,16.98,11.93,24.42l146.61-.06c4.81-7.43,8.82-15.61,11.89-24.36h1.12c-3.04,8.74-7.01,16.92-11.75,24.36l76.86-.03c9.91-7.43,18.18-15.59,24.51-24.33h1.24c-6.23,8.73-14.35,16.9-24.07,24.33l44.81-.02v.03c12.67-7.26,23.29-15.24,31.51-23.78,12.43-12.9,19.32-26.96,19.46-41.8h-36.67s0-1,0-1h36.67c-.15-14.83-7.04-28.88-19.46-41.77-8.32-8.64-19.09-16.7-31.95-24.03v.04l-44.64.02c9.83,7.49,18.05,15.72,24.34,24.54h-1.25c-6.39-8.82-14.75-17.05-24.79-24.54l-76.68.03c4.79,7.48,8.78,15.71,11.85,24.5h-1.12c-3.09-8.81-7.13-17.03-11.98-24.5l-146.51.06c-4.83,7.45-8.86,15.66-11.94,24.45h-1.12c3.05-8.77,7.04-16.98,11.81-24.45l-76.8.03c-9.96,7.45-18.27,15.64-24.63,24.41h-1.25c6.25-8.76,14.42-16.96,24.18-24.41l-44.82.02c-12.71,7.28-23.37,15.27-31.62,23.84C8.12,80.61,1.23,94.68,1.09,109.51h36.67s0,1,0,1H1.09c.15,14.83,7.04,28.88,19.46,41.77,8.3,8.61,19.03,16.65,31.84,23.96v-.05ZM98.04,43.06c5.14-3.85,10.71-7.5,16.67-10.91,25.63-14.7,58.54-25.26,95.32-29.74-52.8,3.74-100.02,14.75-136.2,30.63-7.21,3.17-13.98,6.52-20.26,10.05l44.47-.02ZM385.29,32.15c5.9,3.38,11.41,6.99,16.51,10.79l44.35-.02c-6.2-3.47-12.88-6.78-19.98-9.9-36.17-15.88-83.39-26.89-136.2-30.63,36.79,4.49,69.69,15.04,95.32,29.74ZM324.04,176.92c-2.48,3.81-5.17,7.42-8.04,10.81-13.64,16.1-31.59,27.28-51.59,30.95,46.89-2.01,89-13.73,120.31-31.69,5.55-3.18,10.76-6.56,15.59-10.11l-76.27.03ZM184,187.74c-2.86-3.37-5.53-6.96-8-10.75l-76.14.03c4.78,3.5,9.93,6.83,15.42,9.98,31.31,17.96,73.42,29.68,120.31,31.69-20-3.67-37.95-14.85-51.59-30.95ZM175.99,43.03c2.47-3.79,5.15-7.39,8.01-10.76,13.64-16.1,31.59-27.28,51.59-30.95-46.89,2.01-89,13.73-120.31,31.69-5.53,3.17-10.71,6.53-15.52,10.06l76.24-.03ZM316,32.26c2.85,3.36,5.51,6.94,7.97,10.71l76.11-.03c-4.77-3.49-9.9-6.81-15.36-9.94-31.31-17.96-73.42-29.68-120.31-31.69,20,3.67,37.95,14.85,51.59,30.95ZM315.15,32.88C298.43,13.14,275.48,1,250,1s-48.44,12.14-65.16,31.88c-2.7,3.19-5.24,6.58-7.59,10.14l145.46-.06c-2.34-3.54-4.87-6.91-7.56-10.09ZM184.85,187.12c16.72,19.74,39.68,31.88,65.16,31.88s48.43-12.14,65.15-31.88c2.72-3.21,5.26-6.61,7.62-10.19l-145.52.06c2.35,3.56,4.88,6.94,7.58,10.13ZM500,110c0,15.22-7.06,29.8-19.74,42.96-12.66,13.14-31.02,25-53.63,34.92-45.2,19.84-107.68,32.12-176.62,32.12s-131.42-12.28-176.62-32.12c-22.61-9.93-40.97-21.78-53.63-34.92C7.07,139.8,0,125.22,0,110s7.06-29.8,19.74-42.96c12.66-13.14,31.02-25,53.63-34.92C118.58,12.28,181.06,0,250,0s131.42,12.28,176.62,32.12c22.61,9.92,40.97,21.78,53.63,34.92,12.68,13.16,19.74,27.74,19.74,42.96Z"/>
  <path class="st1" d="M55.01,134.13v-48.26c0-.72.47-1.16,1.24-1.16h9.71c.78,0,1.17.43,1.17,1.16v39.51h50.78c.78,0,1.24.43,1.24,1.16v7.59c0,.72-.47,1.16-1.24,1.16h-61.65c-.78,0-1.24-.43-1.24-1.16ZM124.38,122.06v-36.19c0-.72.47-1.16,1.24-1.16h9.71c.78,0,1.17.43,1.17,1.16v35.4c0,3.11,1.55,4.12,4.5,4.12h36.88c2.95,0,4.51-1.01,4.51-4.12v-35.4c0-.72.39-1.16,1.16-1.16h9.71c.78,0,1.24.43,1.24,1.16v36.19c0,8.24-4.19,13.22-13.82,13.22h-42.47c-9.63,0-13.82-4.98-13.82-13.22ZM205.08,134.13v-48.26c0-.72.47-1.16,1.24-1.16h14.05c.78,0,1.24.36,1.71,1.08l23.99,36.48h1.09l23.99-36.48c.47-.72.93-1.08,1.71-1.08h14.13c.78,0,1.17.43,1.17,1.16v48.26c0,.72-.39,1.16-1.17,1.16h-9.71c-.78,0-1.24-.43-1.24-1.16v-34.39h-.85l-22.52,34.39c-.46.72-1.01,1.16-1.86,1.16h-8.39c-.77,0-1.32-.43-1.78-1.16l-22.6-34.39h-.86v34.39c0,.72-.39,1.16-1.16,1.16h-9.71c-.78,0-1.24-.43-1.24-1.16ZM367.07,97.5v24.99c0,8.09-5.2,13.08-13.04,13.08h-44.18c-7.69,0-12.97-4.98-12.97-13.08v-24.99c0-8.09,5.28-13.08,12.97-13.08h44.26c7.69,0,12.97,4.99,12.97,13.08ZM332.13,126.54c6.68,0,12.27-5.27,12.27-11.49,0-2.39-.78-4.55-2.1-6.43l-8.39-13.87c-1.16-2.02-2.48-2.02-3.65,0l-8.39,13.87c-1.32,1.88-2.02,4.04-2.02,6.43,0,6.21,5.44,11.49,12.27,11.49ZM376.33,134.13v-48.26c0-.72.46-1.16,1.24-1.16h11.34c.7,0,1.01.29,1.71.87l41.38,36.41h1.01v-36.12c0-.72.47-1.16,1.24-1.16h9.71c.78,0,1.24.43,1.24,1.16v48.26c0,.72-.47,1.16-1.24,1.16h-11.34c-.77,0-1.09-.29-1.79-.87l-41.31-36.41h-1.09v36.12c0,.72-.39,1.16-1.17,1.16h-9.7c-.78,0-1.24-.43-1.24-1.16Z"/>
</svg>