<svg width="739" height="100" viewBox="0 0 739 100" fill="none" xmlns="http://www.w3.org/2000/svg">
<path d="M30.982 100V23.2H0.39V0.159996H88.71V23.2H57.862V100H30.982ZM95.775 0.159996H177.695V23.2H122.655V38.56H172.575V60.32H122.655V76.96H177.951V100H95.775V0.159996ZM189.525 0.159996H216.405V76.96H265.045V100H189.525V0.159996ZM272.025 0.159996H353.945V23.2H298.905V38.56H348.825V60.32H298.905V76.96H354.201V100H272.025V0.159996ZM365.775 0.159996H422.863C449.487 0.159996 456.143 6.81599 456.143 33.44C456.143 59.296 449.999 66.08 425.167 67.36H392.655V100H365.775V0.159996ZM392.655 44.32H415.951C427.983 44.32 429.263 43.296 429.263 33.568C429.263 23.072 427.983 21.92 415.951 21.92H392.655V44.32ZM530.455 0.159996L562.455 100H531.735L526.359 80.544H487.959L481.943 100H453.015L485.911 0.159996H530.455ZM494.871 58.784H519.703L507.799 21.92H507.031L494.871 58.784ZM581.607 100V23.2H551.015V0.159996H639.335V23.2H608.487V100H581.607ZM646.4 100V0.159996H673.28V37.536H711.68V0.159996H738.56V100H711.68V60.576H673.28V100H646.4Z" fill="#E7E4E4"/>
</svg>
